<?xml version="1.0" encoding="UTF-8"?>
<svg xmlns="http://www.w3.org/2000/svg" xmlns:xlink="http://www.w3.org/1999/xlink" width="50pt" height="50pt" viewBox="0 0 50 50" version="1.1">
<g id="surface5266558">
<path style=" stroke:none;fill-rule:nonzero;fill:rgb(94.509804%,76.862745%,5.882353%);fill-opacity:1;" d="M 6.5 13.5 C 5.949219 13.5 5.5 13.949219 5.5 14.5 C 5.5 15.050781 5.949219 15.5 6.5 15.5 C 7.050781 15.5 7.5 15.050781 7.5 14.5 C 7.5 13.949219 7.050781 13.5 6.5 13.5 Z M 6.5 13.5 "/>
<path style=" stroke:none;fill-rule:nonzero;fill:rgb(94.509804%,73.72549%,9.803922%);fill-opacity:1;" d="M 38.5 6 C 38.222656 6 38 6.222656 38 6.5 C 38 6.777344 38.222656 7 38.5 7 C 38.777344 7 39 6.777344 39 6.5 C 39 6.222656 38.777344 6 38.5 6 Z M 38.5 6 "/>
<path style=" stroke:none;fill-rule:nonzero;fill:rgb(98.823529%,87.843137%,63.529412%);fill-opacity:1;" d="M 25 6.5 C 14.78125 6.5 6.5 14.78125 6.5 25 C 6.5 35.21875 14.78125 43.5 25 43.5 C 35.21875 43.5 43.5 35.21875 43.5 25 C 43.5 14.78125 35.21875 6.5 25 6.5 Z M 25 6.5 "/>
<path style=" stroke:none;fill-rule:nonzero;fill:rgb(94.509804%,73.72549%,9.803922%);fill-opacity:1;" d="M 41.5 5.5 C 40.394531 5.5 39.5 6.394531 39.5 7.5 C 39.5 8.605469 40.394531 9.5 41.5 9.5 C 42.605469 9.5 43.5 8.605469 43.5 7.5 C 43.5 6.394531 42.605469 5.5 41.5 5.5 Z M 41.5 5.5 "/>
<path style=" stroke:none;fill-rule:nonzero;fill:rgb(94.509804%,76.862745%,5.882353%);fill-opacity:1;" d="M 43.5 11 C 42.949219 11 42.5 11.449219 42.5 12 C 42.5 12.550781 42.949219 13 43.5 13 C 44.050781 13 44.5 12.550781 44.5 12 C 44.5 11.449219 44.050781 11 43.5 11 Z M 43.5 11 "/>
<path style=" stroke:none;fill-rule:nonzero;fill:rgb(98.431373%,80.392157%,34.901961%);fill-opacity:1;" d="M 40.5 37 C 39.949219 37 39.5 37.449219 39.5 38 C 39.5 38.550781 39.949219 39 40.5 39 C 41.050781 39 41.5 38.550781 41.5 38 C 41.5 37.449219 41.050781 37 40.5 37 Z M 7.5 29.5 C 6.394531 29.5 5.5 30.394531 5.5 31.5 C 5.5 32.605469 6.394531 33.5 7.5 33.5 C 8.605469 33.5 9.5 32.605469 9.5 31.5 C 9.5 30.394531 8.605469 29.5 7.5 29.5 Z M 7.5 29.5 "/>
<path style=" stroke:none;fill-rule:nonzero;fill:rgb(94.509804%,76.862745%,5.882353%);fill-opacity:1;" d="M 12.5 42.5 C 11.949219 42.5 11.5 42.949219 11.5 43.5 C 11.5 44.050781 11.949219 44.5 12.5 44.5 C 13.050781 44.5 13.5 44.050781 13.5 43.5 C 13.5 42.949219 13.050781 42.5 12.5 42.5 Z M 12.5 42.5 "/>
<path style=" stroke:none;fill-rule:nonzero;fill:rgb(100%,100%,100%);fill-opacity:1;" d="M 9.25 25.5 C 8.558594 25.5 8 26.058594 8 26.75 C 8 27.441406 8.558594 28 9.25 28 C 9.941406 28 10.5 27.441406 10.5 26.75 C 10.5 26.058594 9.941406 25.5 9.25 25.5 Z M 9.25 25.5 "/>
<path style=" stroke:none;fill-rule:nonzero;fill:rgb(94.509804%,73.72549%,9.803922%);fill-opacity:1;" d="M 10.5 33 C 10.222656 33 10 33.222656 10 33.5 C 10 33.777344 10.222656 34 10.5 34 C 10.777344 34 11 33.777344 11 33.5 C 11 33.222656 10.777344 33 10.5 33 Z M 10.5 33 "/>
<path style=" stroke:none;fill-rule:nonzero;fill:rgb(100%,100%,100%);fill-opacity:1;" d="M 40 16.5 C 39.722656 16.5 39.5 16.722656 39.5 17 C 39.5 17.277344 39.722656 17.5 40 17.5 C 40.277344 17.5 40.5 17.277344 40.5 17 C 40.5 16.722656 40.277344 16.5 40 16.5 Z M 40 16.5 "/>
<path style=" stroke:none;fill-rule:nonzero;fill:rgb(90.196078%,49.411765%,13.333333%);fill-opacity:1;" d="M 20.851562 37.148438 C 18.949219 37.148438 16.851562 36.101562 16.851562 33.75 L 16.851562 20.949219 L 15.351562 19.199219 L 15.351562 17.5 C 15.351562 15.101562 16.398438 14.148438 18.898438 14.148438 L 31.050781 14.148438 C 33.601562 14.148438 34.601562 15.148438 34.601562 17.5 L 34.601562 19.25 L 33.101562 20.949219 L 33.101562 33.75 C 33.101562 36.050781 31 37.148438 29.050781 37.148438 Z M 20.851562 37.148438 "/>
<path style=" stroke:none;fill-rule:nonzero;fill:rgb(27.843137%,16.862745%,16.078431%);fill-opacity:1;" d="M 31.101562 14.5 C 33.800781 14.5 34.300781 15.648438 34.300781 17.5 L 34.300781 19.101562 L 32.949219 20.601562 L 32.800781 20.800781 L 32.800781 33.75 C 32.800781 35.851562 30.949219 36.800781 29.101562 36.800781 L 20.851562 36.800781 C 19.050781 36.800781 17.199219 35.851562 17.199219 33.75 L 17.199219 20.851562 L 17.050781 20.648438 L 15.699219 19.101562 L 15.699219 17.5 C 15.699219 15.648438 16.25 14.5 18.898438 14.5 L 31.101562 14.5 M 31.101562 13.800781 L 18.898438 13.800781 C 16 13.800781 15 15.101562 15 17.5 L 15 19.398438 L 16.5 21.148438 L 16.5 33.800781 C 16.5 36.25 18.601562 37.550781 20.851562 37.550781 L 29.101562 37.550781 C 31.398438 37.550781 33.5 36.25 33.5 33.800781 L 33.5 21.050781 L 35 19.351562 L 35 17.5 C 35 15.101562 34 13.800781 31.101562 13.800781 Z M 31.101562 13.800781 "/>
<path style=" stroke:none;fill-rule:nonzero;fill:rgb(94.509804%,76.862745%,5.882353%);fill-opacity:1;" d="M 18.699219 28.300781 L 18.699219 21.550781 C 18.699219 21.050781 19.148438 20.648438 19.648438 20.648438 C 20.199219 20.648438 20.601562 21.050781 20.601562 21.550781 L 20.601562 33.5 C 20.601562 34 20.148438 34.398438 19.648438 34.398438 C 19.101562 34.398438 18.699219 34 18.699219 33.5 L 18.699219 32.398438 M 22.148438 28.300781 L 22.148438 21.550781 C 22.148438 21.050781 22.601562 20.648438 23.148438 20.648438 C 23.699219 20.648438 24.148438 21.050781 24.148438 21.550781 L 24.148438 33.5 C 24.148438 34 23.699219 34.398438 23.148438 34.398438 C 22.601562 34.398438 22.148438 34 22.148438 33.5 L 22.148438 32.398438 "/>
<path style=" stroke:none;fill-rule:nonzero;fill:rgb(27.843137%,16.862745%,16.078431%);fill-opacity:1;" d="M 23.25 20.898438 C 23.699219 20.898438 24.101562 21.199219 24.101562 21.550781 L 24.101562 33.5 C 24.101562 33.851562 23.699219 34.148438 23.25 34.148438 C 22.800781 34.148438 22.398438 33.851562 22.398438 33.5 L 22.398438 21.550781 C 22.398438 21.199219 22.75 20.898438 23.25 20.898438 M 23.25 20.648438 C 22.648438 20.648438 22.148438 21.050781 22.148438 21.550781 L 22.148438 33.5 C 22.148438 34 22.648438 34.398438 23.25 34.398438 C 23.851562 34.398438 24.351562 34 24.351562 33.5 L 24.351562 21.550781 C 24.300781 21.050781 23.800781 20.648438 23.25 20.648438 Z M 19.75 34.398438 C 19.148438 34.398438 18.601562 33.949219 18.601562 33.398438 L 18.601562 32.25 C 18.601562 32.199219 18.648438 32.101562 18.75 32.101562 C 18.851562 32.101562 18.898438 32.148438 18.898438 32.25 L 18.898438 33.398438 C 18.898438 33.800781 19.300781 34.148438 19.800781 34.148438 C 20.300781 34.148438 20.699219 33.800781 20.699219 33.398438 L 20.699219 21.648438 C 20.699219 21.25 20.300781 20.898438 19.800781 20.898438 C 19.300781 20.898438 18.898438 21.25 18.898438 21.648438 L 18.898438 26.25 C 18.898438 26.300781 18.851562 26.398438 18.75 26.398438 C 18.648438 26.398438 18.601562 26.351562 18.601562 26.25 L 18.601562 21.648438 C 18.601562 21.101562 19.101562 20.648438 19.75 20.648438 C 20.398438 20.648438 20.898438 21.101562 20.898438 21.648438 L 20.898438 33.398438 C 20.898438 33.949219 20.351562 34.398438 19.75 34.398438 Z M 19.75 34.398438 "/>
<path style=" stroke:none;fill-rule:nonzero;fill:rgb(94.509804%,76.862745%,5.882353%);fill-opacity:1;" d="M 25.699219 28.300781 L 25.699219 21.550781 C 25.699219 21.050781 26.148438 20.648438 26.699219 20.648438 C 27.25 20.648438 27.699219 21.050781 27.699219 21.550781 L 27.699219 33.5 C 27.699219 34 27.25 34.398438 26.699219 34.398438 C 26.148438 34.398438 25.699219 34 25.699219 33.5 L 25.699219 32.398438 M 29.25 28.300781 L 29.25 21.550781 C 29.25 21.050781 29.699219 20.648438 30.25 20.648438 C 30.800781 20.648438 31.25 21.050781 31.25 21.550781 L 31.25 33.5 C 31.25 34 30.800781 34.398438 30.25 34.398438 C 29.699219 34.398438 29.25 34 29.25 33.5 L 29.25 32.398438 "/>
<path style=" stroke:none;fill-rule:nonzero;fill:rgb(94.509804%,76.862745%,5.882353%);fill-opacity:1;" d="M 25.699219 28.300781 L 25.699219 21.550781 C 25.699219 21.050781 26.148438 20.648438 26.699219 20.648438 C 27.25 20.648438 27.699219 21.050781 27.699219 21.550781 L 27.699219 33.5 C 27.699219 34 27.25 34.398438 26.699219 34.398438 C 26.148438 34.398438 25.699219 34 25.699219 33.5 L 25.699219 32.398438 M 29.25 28.300781 L 29.25 21.550781 C 29.25 21.050781 29.75 20.648438 30.351562 20.648438 C 30.949219 20.648438 31.449219 21.050781 31.449219 21.550781 L 31.449219 33.5 C 31.449219 34 30.949219 34.398438 30.351562 34.398438 C 29.75 34.398438 29.25 34 29.25 33.5 L 29.25 32.398438 "/>
<path style=" stroke:none;fill-rule:nonzero;fill:rgb(27.843137%,16.862745%,16.078431%);fill-opacity:1;" d="M 26.75 20.898438 C 27.199219 20.898438 27.550781 21.199219 27.550781 21.550781 L 27.550781 33.5 C 27.550781 33.851562 27.199219 34.148438 26.75 34.148438 C 26.300781 34.148438 25.949219 33.851562 25.949219 33.5 L 25.949219 21.550781 C 25.949219 21.199219 26.351562 20.898438 26.75 20.898438 M 26.75 20.648438 C 26.148438 20.648438 25.699219 21.050781 25.699219 21.550781 L 25.699219 33.5 C 25.699219 34 26.199219 34.398438 26.75 34.398438 C 27.300781 34.398438 27.800781 34 27.800781 33.5 L 27.800781 21.550781 C 27.851562 21.050781 27.351562 20.648438 26.75 20.648438 Z M 30.300781 20.75 C 30.800781 20.75 31.199219 21.050781 31.199219 21.398438 L 31.199219 33.601562 C 31.199219 33.949219 30.800781 34.25 30.300781 34.25 C 29.800781 34.25 29.398438 33.949219 29.398438 33.601562 L 29.398438 21.398438 C 29.398438 21.050781 29.851562 20.75 30.300781 20.75 M 30.300781 20.5 C 29.648438 20.5 29.148438 20.898438 29.148438 21.398438 L 29.148438 33.601562 C 29.148438 34.101562 29.648438 34.5 30.300781 34.5 C 30.949219 34.5 31.449219 34.101562 31.449219 33.601562 L 31.449219 21.398438 C 31.5 20.898438 30.949219 20.5 30.300781 20.5 Z M 16.300781 22.898438 L 16.300781 26.601562 C 15.699219 26.601562 15.199219 26.148438 15.199219 25.648438 L 15.199219 23.800781 C 15.199219 23.300781 15.699219 22.898438 16.300781 22.898438 M 17 22.199219 L 16.300781 22.199219 C 15.300781 22.199219 14.5 22.949219 14.5 23.851562 L 14.5 25.699219 C 14.5 26.601562 15.300781 27.351562 16.300781 27.351562 L 17 27.351562 Z M 33.699219 22.898438 C 34.300781 22.898438 34.800781 23.351562 34.800781 23.851562 L 34.800781 25.699219 C 34.800781 26.199219 34.300781 26.648438 33.699219 26.648438 L 33.699219 22.898438 M 33.699219 22.199219 L 33 22.199219 L 33 27.300781 L 33.699219 27.300781 C 34.699219 27.300781 35.5 26.550781 35.5 25.648438 L 35.5 23.800781 C 35.5 22.949219 34.699219 22.199219 33.699219 22.199219 Z M 27.148438 12.199219 C 27.75 12.199219 28.300781 12.851562 28.300781 13.601562 L 28.300781 13.75 L 21.699219 13.75 L 21.699219 13.601562 C 21.699219 12.851562 22.199219 12.199219 22.851562 12.199219 L 27.148438 12.199219 M 27.148438 11.5 L 22.800781 11.5 C 21.800781 11.5 20.949219 12.449219 20.949219 13.601562 L 20.949219 14.449219 L 28.949219 14.449219 L 28.949219 13.601562 C 29 12.449219 28.148438 11.5 27.148438 11.5 Z M 34.101562 19.5 L 15.75 19.5 C 15.699219 19.5 15.601562 19.449219 15.601562 19.351562 C 15.601562 19.25 15.648438 19.199219 15.75 19.199219 L 34.101562 19.199219 C 34.148438 19.199219 34.25 19.25 34.25 19.351562 C 34.25 19.449219 34.199219 19.5 34.101562 19.5 Z M 30.75 16.398438 L 15.25 16.398438 C 15.199219 16.398438 15.101562 16.351562 15.101562 16.25 C 15.101562 16.148438 15.148438 16.101562 15.25 16.101562 L 30.75 16.101562 C 30.800781 16.101562 30.898438 16.148438 30.898438 16.25 C 30.898438 16.351562 30.800781 16.398438 30.75 16.398438 Z M 32.101562 35.800781 L 17.800781 35.800781 C 17.75 35.800781 17.648438 35.75 17.648438 35.648438 C 17.648438 35.550781 17.699219 35.5 17.800781 35.5 L 32.050781 35.5 C 32.101562 35.5 32.199219 35.550781 32.199219 35.648438 C 32.199219 35.75 32.148438 35.800781 32.101562 35.800781 Z M 33.101562 16.449219 L 31.550781 16.449219 C 31.5 16.449219 31.398438 16.398438 31.398438 16.300781 C 31.398438 16.199219 31.449219 16.148438 31.550781 16.148438 L 33.101562 16.148438 C 33.148438 16.148438 33.25 16.199219 33.25 16.300781 C 33.25 16.398438 33.148438 16.449219 33.101562 16.449219 Z M 18.75 29.398438 C 18.699219 29.398438 18.601562 29.351562 18.601562 29.25 L 18.601562 27.398438 C 18.601562 27.351562 18.648438 27.25 18.75 27.25 C 18.851562 27.25 18.898438 27.300781 18.898438 27.398438 L 18.898438 29.25 C 18.851562 29.351562 18.800781 29.398438 18.75 29.398438 Z M 18.75 29.398438 "/>
<path style=" stroke:none;fill-rule:nonzero;fill:rgb(27.843137%,16.862745%,16.078431%);fill-opacity:1;" d="M 34.75 18 L 15.25 18 C 15.101562 18 15 17.898438 15 17.75 C 15 17.601562 15.101562 17.5 15.25 17.5 L 34.75 17.5 C 34.898438 17.5 35 17.601562 35 17.75 C 35 17.898438 34.898438 18 34.75 18 Z M 34.75 18 "/>
</g>
</svg>
